<?xml version="1.0" standalone="no"?>
<!DOCTYPE svg PUBLIC "-//W3C//DTD SVG 20010904//EN"
 "http://www.w3.org/TR/2001/REC-SVG-20010904/DTD/svg10.dtd">
<svg version="1.0" xmlns="http://www.w3.org/2000/svg"
 width="32.000000pt" height="32.000000pt" viewBox="0 0 32.000000 32.000000"
 preserveAspectRatio="xMidYMid meet">

<g transform="translate(0.000000,32.000000) scale(0.100000,-0.100000)"
fill="#000000" stroke="none">
<path d="M0 275 c0 -32 4 -43 13 -40 7 3 39 -22 72 -55 33 -33 66 -60 75 -60
9 0 42 27 75 60 33 33 65 58 72 55 9 -3 13 8 13 40 l0 45 -160 0 -160 0 0 -45z"/>
<path d="M0 107 l0 -107 160 0 160 0 0 107 0 106 -69 -66 c-42 -41 -78 -67
-91 -67 -13 0 -49 26 -91 67 l-69 66 0 -106z"/>
</g>
</svg>
