<?xml version="1.0" standalone="no"?>
<!DOCTYPE svg PUBLIC "-//W3C//DTD SVG 20010904//EN"
 "http://www.w3.org/TR/2001/REC-SVG-20010904/DTD/svg10.dtd">
<svg version="1.0" xmlns="http://www.w3.org/2000/svg"
 width="64.000000pt" height="64.000000pt" viewBox="0 0 64.000000 64.000000"
 preserveAspectRatio="xMidYMid meet">

<g transform="translate(0.000000,64.000000) scale(0.100000,-0.100000)"
fill="#000000" stroke="none">
<path d="M70 626 c0 -9 13 -16 33 -19 l32 -4 -32 -1 c-22 -1 -33 -7 -33 -17 0
-8 -7 -15 -15 -15 -12 0 -15 -18 -15 -105 0 -66 5 -113 12 -125 10 -16 10 -24
0 -40 -7 -12 -12 -59 -12 -125 0 -87 3 -105 15 -105 8 0 15 -7 15 -15 0 -12
18 -15 105 -15 66 0 113 5 125 12 16 10 24 10 40 0 11 -6 50 -12 87 -12 49 0
64 -3 56 -11 -8 -8 -77 -11 -212 -10 -125 0 -201 -3 -201 -9 0 -6 94 -10 250
-10 160 0 250 4 250 10 0 6 -9 10 -19 10 -11 0 -23 5 -26 10 -4 6 5 10 19 10
16 0 26 6 26 15 0 8 7 15 15 15 12 0 15 18 15 105 0 66 -5 113 -12 125 -10 16
-10 24 0 40 7 12 12 59 12 125 0 87 -3 105 -15 105 -8 0 -15 7 -15 15 0 12
-18 15 -105 15 -65 0 -113 -5 -125 -12 -14 -9 -24 -9 -42 0 -13 6 -50 13 -83
15 l-60 3 68 2 c37 1 67 7 67 12 0 6 14 10 30 10 17 0 30 -4 30 -10 0 -6 43
-10 110 -10 91 0 110 3 110 15 0 13 -34 15 -250 15 -211 0 -250 -2 -250 -14z
m330 -106 c15 -29 140 -390 140 -406 0 -10 -16 -14 -64 -14 -68 0 -77 5 -93
55 -9 28 -13 30 -63 30 -50 0 -54 -2 -63 -30 -16 -50 -25 -55 -93 -55 -48 0
-64 4 -64 14 0 16 125 377 140 406 9 17 21 20 80 20 59 0 71 -3 80 -20z"/>
<path d="M256 511 c-6 -10 -136 -379 -136 -387 0 -12 41 -2 46 11 4 8 10 12
15 9 5 -3 7 -10 4 -15 -4 -5 3 -9 15 -9 27 0 58 63 34 68 -8 2 -22 -2 -31 -9
-13 -11 -15 -11 -12 6 4 18 13 20 99 20 l95 0 15 -43 c11 -33 19 -42 37 -42
13 0 23 2 23 4 0 3 -20 61 -44 130 -25 69 -41 128 -37 131 5 2 30 -56 56 -130
38 -108 51 -135 66 -135 11 0 19 3 18 8 0 4 -30 93 -67 197 -58 166 -70 190
-90 193 l-22 3 20 -52 c12 -28 18 -54 15 -57 -8 -8 -12 -2 -33 53 -17 43 -24
50 -50 53 -16 2 -33 -1 -36 -7z m76 -148 c19 -54 33 -101 31 -105 -5 -10 -140
-10 -146 0 -6 9 63 202 73 202 4 0 23 -44 42 -97z"/>
<path d="M262 348 c-27 -76 -27 -78 -4 -78 22 0 55 84 46 118 -10 35 -19 27
-42 -40z"/>
<path d="M312 313 c-17 -31 -15 -43 8 -43 21 0 24 12 11 45 -8 19 -8 19 -19
-2z"/>
<path d="M20 605 c0 -8 7 -15 15 -15 8 0 15 7 15 15 0 8 -7 15 -15 15 -8 0
-15 -7 -15 -15z"/>
<path d="M590 605 c0 -8 7 -15 15 -15 8 0 15 7 15 15 0 8 -7 15 -15 15 -8 0
-15 -7 -15 -15z"/>
<path d="M0 320 c0 -149 4 -250 9 -250 6 0 10 101 10 250 0 151 -4 250 -10
250 -5 0 -9 -99 -9 -250z"/>
<path d="M621 320 c0 -152 4 -250 9 -250 6 0 10 98 10 250 0 152 -4 250 -10
250 -5 0 -9 -98 -9 -250z"/>
<path d="M20 35 c0 -8 7 -15 15 -15 8 0 15 7 15 15 0 8 -7 15 -15 15 -8 0 -15
-7 -15 -15z"/>
<path d="M590 35 c0 -8 7 -15 15 -15 8 0 15 7 15 15 0 8 -7 15 -15 15 -8 0
-15 -7 -15 -15z"/>
</g>
</svg>
